:FULLY-SPECIFIED
:FORCE-ALL-JOINTS-BE-3DOF
:DEGREES
645
root 5.78986 18.3943 -0.763034 14.214 4.98004 -8.21745
lfemur -24.8067 16.3509 -7.90892
ltibia 61.0341 0 0
lfoot -18.9138 14.7818 0
ltoes 19.7375 0 0
rfemur -42.6612 -13.3701 20.233
rtibia 55.2589 0 0
rfoot 12.5508 14.9914 0
rtoes 7.64037 0 0
lowerback 4.35632 -2.80425 -4.95626
upperback -0.164673 -3.98878 -0.0073525
thorax -2.30397 -1.97152 2.96897
lowerneck -7.27967 -8.67423 -1.4219
upperneck 9.96664 -12.2582 5.83984
head 4.69997 -5.68799 1.21614
lclavicle -4.03134e-14 -8.73136e-15 0
lhumerus -6.46066 -33.3586 58.302
lradius 54.1204 0 0
lwrist 25.6091 0 0
lhand -16.8418 -0.921185 0
lfingers 7.12502 0 0
lthumb 9.3955 28.932 0
rclavicle -4.03134e-14 -8.73136e-15 0
rhumerus 13.7655 -4.4428 -50.1687
rradius 117.506 0 0
rwrist -45.5195 0 0
rhand -32.7018 -29.8569 0
rfingers 7.12502 0 0
rthumb -5.91002 -780.099 0
646
root 5.79548 18.4557 -0.669055 14.302 3.15671 -8.66675
lfemur -25.0421 15.9544 -7.46178
ltibia 61.7223 0 0
lfoot -18.4693 14.4284 0
ltoes 20.0234 0 0
rfemur -42.3913 -13.1737 19.8989
rtibia 55.2856 0 0
rfoot 12.7288 14.4284 0
rtoes 8.12542 0 0
lowerback 4.39123 -2.79412 -4.92137
upperback -0.188272 -3.97627 -0.0426531
thorax -2.35483 -1.96508 2.91364
lowerneck -7.27032 -8.62284 -1.43174
upperneck 9.80349 -12.1785 5.8302
head 4.64651 -5.65427 1.22534
lclavicle -3.96872e-14 -8.59982e-15 0
lhumerus -5.98617 -33.1579 57.2518
lradius 54.0875 0 0
lwrist 25.6744 0 0
lhand -16.943 -0.968613 0
lfingers 7.12502 0 0
lthumb 9.29786 28.8885 0
rclavicle -3.96872e-14 -8.59982e-15 0
rhumerus 13.2945 -4.67126 -49.4105
rradius 117.266 0 0
rwrist -44.9277 0 0
rhand -32.7837 -30.0807 0
rfingers 7.12502 0 0
rthumb -5.9892 -780.32 0
647
root 5.80105 18.5173 -0.574312 14.3774 1.32728 -9.12264
lfemur -25.2794 15.5524 -7.01274
ltibia 62.4136 0 0
lfoot -18.0222 14.0709 0
ltoes 20.3103 0 0
rfemur -42.1201 -12.9743 19.5617
rtibia 55.3126 0 0
rfoot 12.9068 13.8607 0
rtoes 8.61132 0 0
lowerback 4.42658 -2.78355 -4.88574
upperback -0.211931 -3.96315 -0.0780343
thorax -2.40607 -1.95832 2.8578
lowerneck -7.26101 -8.57117 -1.44169
upperneck 9.6391 -12.0983 5.82015
head 4.59264 -5.62036 1.2345
lclavicle -3.90544e-14 -8.46641e-15 0
lhumerus -5.51264 -32.9555 56.1998
lradius 54.0546 0 0
lwrist 25.7385 0 0
lhand -17.0429 -1.01616 0
lfingers 7.12502 0 0
lthumb 9.2014 28.8446 0
rclavicle -3.90544e-14 -8.46641e-15 0
rhumerus 12.8166 -4.89632 -48.651
rradius 117.024 0 0
rwrist -44.3276 0 0
rhand -32.8625 -30.3044 0
rfingers 7.12502 0 0
rthumb -6.06542 -780.541 0
648
root 5.80654 18.579 -0.478816 14.4407 -0.507231 -9.58373
lfemur -25.5185 15.1455 -6.56206
ltibia 63.1076 0 0
lfoot -17.5729 13.7095 0
ltoes 20.5981 0 0
rfemur -41.8475 -12.7719 19.2215
rtibia 55.3397 0 0
rfoot 13.085 13.2887 0
rtoes 9.09774 0 0
lowerback 4.46235 -2.77254 -4.8494
upperback -0.235637 -3.94941 -0.11348
thorax -2.45764 -1.95126 2.80148
lowerneck -7.25174 -8.51924 -1.45174
upperneck 9.47355 -12.0175 5.80969
head 4.53839 -5.58627 1.24361
lclavicle -3.84156e-14 -8.33123e-15 0
lhumerus -5.04036 -32.7514 55.1467
lradius 54.0218 0 0
lwrist 25.8016 0 0
lhand -17.1416 -1.06379 0
lfingers 7.12502 0 0
lthumb 9.10614 28.8005 0
rclavicle -3.84156e-14 -8.33123e-15 0
rhumerus 12.3321 -5.11786 -47.8909
rradius 116.777 0 0
rwrist -43.7195 0 0
rhand -32.9383 -30.5282 0
rfingers 7.12502 0 0
rthumb -6.1387 -780.762 0
649
root 5.81196 18.641 -0.382574 14.4922 -2.3458 -10.0486
lfemur -25.7592 14.7338 -6.10999
ltibia 63.8038 0 0
lfoot -17.1215 13.3444 0
ltoes 20.8865 0 0
rfemur -41.5736 -12.5667 18.8787
rtibia 55.3669 0 0
rfoot 13.2629 12.7126 0
rtoes 9.58438 0 0
lowerback 4.4985 -2.76108 -4.81235
upperback -0.259376 -3.93505 -0.148974
thorax -2.5095 -1.94389 2.74469
lowerneck -7.2425 -8.46707 -1.46187
upperneck 9.30694 -11.9364 5.79882
head 4.4838 -5.55203 1.25266
lclavicle -3.77715e-14 -8.1944e-15 0
lhumerus -4.56963 -32.5457 54.0931
lradius 53.9891 0 0
lwrist 25.8635 0 0
lhand -17.239 -1.11147 0
lfingers 7.12502 0 0
lthumb 9.01209 28.7562 0
rclavicle -3.77715e-14 -8.1944e-15 0
rhumerus 11.8414 -5.33578 -47.1306
rradius 116.528 0 0
rwrist -43.104 0 0
rhand -33.011 -30.7518 0
rfingers 7.12502 0 0
rthumb -6.20907 -780.982 0
650
root 5.81728 18.703 -0.285594 14.5323 -4.18741 -10.5159
lfemur -26.0015 14.3177 -5.6568
ltibia 64.5016 0 0
lfoot -16.6683 12.9759 0
ltoes 21.1755 0 0
rfemur -41.2985 -12.3588 18.5335
rtibia 55.3939 0 0
rfoot 13.4405 12.1329 0
rtoes 10.0709 0 0
lowerback 4.53499 -2.74918 -4.77461
upperback -0.283135 -3.92008 -0.184501
thorax -2.56162 -1.9362 2.68746
lowerneck -7.23329 -8.41467 -1.47207
upperneck 9.13933 -11.8548 5.78757
head 4.42887 -5.51763 1.26165
lclavicle -3.71227e-14 -8.05606e-15 0
lhumerus -4.10074 -32.3385 53.0395
lradius 53.9564 0 0
lwrist 25.9243 0 0
lhand -17.3351 -1.15916 0
lfingers 7.12502 0 0
lthumb 8.91925 28.7116 0
rclavicle -3.71227e-14 -8.05606e-15 0
rhumerus 11.3448 -5.54996 -46.3707
rradius 116.276 0 0
rwrist -42.4814 0 0
rhand -33.0807 -30.9751 0
rfingers 7.12502 0 0
rthumb -6.27657 -781.201 0
651
root 5.82249 18.7651 -0.187885 14.5615 -6.03105 -10.9843
lfemur -26.2451 13.8975 -5.20273
ltibia 65.2007 0 0
lfoot -16.2137 12.6044 0
ltoes 21.4648 0 0
rfemur -41.0222 -12.1485 18.1861
rtibia 55.4209 0 0
rfoot 13.6175 11.55 0
rtoes 10.5571 0 0
lowerback 4.57178 -2.73683 -4.73621
upperback -0.306902 -3.90449 -0.220045
thorax -2.61395 -1.92821 2.62983
lowerneck -7.22413 -8.36205 -1.48231
upperneck 8.97083 -11.7728 5.77593
head 4.37365 -5.48308 1.27056
lclavicle -3.64698e-14 -7.91632e-15 0
lhumerus -3.63399 -32.1299 51.9866
lradius 53.9239 0 0
lwrist 25.984 0 0
lhand -17.4299 -1.20681 0
lfingers 7.12502 0 0
lthumb 8.82764 28.667 0
rclavicle -3.64698e-14 -7.91632e-15 0
rhumerus 10.8426 -5.76029 -45.6117
rradius 116.021 0 0
rwrist -41.8522 0 0
rhand -33.1475 -31.1981 0
rfingers 7.12502 0 0
rthumb -6.34121 -781.42 0
652
root 5.8276 18.8272 -0.0894563 14.58 -7.87568 -11.4523
lfemur -26.4901 13.4735 -4.74804
ltibia 65.9005 0 0
lfoot -15.7578 12.2299 0
ltoes 21.7542 0 0
rfemur -40.7449 -11.9359 17.8369
rtibia 55.4476 0 0
rfoot 13.7939 10.964 0
rtoes 11.0425 0 0
lowerback 4.60883 -2.72404 -4.69714
upperback -0.330663 -3.88828 -0.25559
thorax -2.66645 -1.91991 2.5718
lowerneck -7.215 -8.30923 -1.49258
upperneck 8.8015 -11.6905 5.76391
head 4.31816 -5.44841 1.27941
lclavicle -3.58134e-14 -7.7753e-15 0
lhumerus -3.16968 -31.9199 50.9349
lradius 53.8916 0 0
lwrist 26.0426 0 0
lhand -17.5235 -1.25441 0
lfingers 7.12502 0 0
lthumb 8.73727 28.6222 0
rclavicle -3.58134e-14 -7.7753e-15 0
rhumerus 10.3351 -5.96666 -44.8542
rradius 115.763 0 0
rwrist -41.2168 0 0
rhand -33.2113 -31.4207 0
rfingers 7.12502 0 0
rthumb -6.40302 -781.638 0
653
root 5.83258 18.8893 0.00968454 14.5882 -9.7203 -11.9186
lfemur -26.7362 13.0461 -4.29299
ltibia 66.6006 0 0
lfoot -15.3009 11.8529 0
ltoes 22.0436 0 0
rfemur -40.4665 -11.7211 17.4861
rtibia 55.474 0 0
rfoot 13.9693 10.3755 0
rtoes 11.5269 0 0
lowerback 4.64612 -2.7108 -4.65743
upperback -0.354406 -3.87144 -0.291119
thorax -2.71909 -1.91129 2.51341
lowerneck -7.2059 -8.25622 -1.50285
upperneck 8.63145 -11.6078 5.75153
head 4.26243 -5.41361 1.28817
lclavicle -3.51542e-14 -7.63312e-15 0
lhumerus -2.70811 -31.7087 49.8852
lradius 53.8594 0 0
lwrist 26.1001 0 0
lhand -17.6158 -1.3019 0
lfingers 7.12502 0 0
lthumb 8.64814 28.5773 0
rclavicle -3.51542e-14 -7.63312e-15 0
rhumerus 9.8227 -6.16896 -44.0986
rradius 115.502 0 0
rwrist -40.5756 0 0
rhand -33.2722 -31.6426 0
rfingers 7.12502 0 0
rthumb -6.46204 -781.856 0
654
root 5.83742 18.9514 0.109529 14.5866 -11.5639 -12.3817
lfemur -26.9833 12.6155 -3.83783
ltibia 67.3005 0 0
lfoot -14.8433 11.4734 0
ltoes 22.3328 0 0
rfemur -40.1872 -11.5043 17.1339
rtibia 55.5 0 0
rfoot 14.1437 9.78465 0
rtoes 12.0099 0 0
lowerback 4.6836 -2.69712 -4.6171
upperback -0.378117 -3.85399 -0.326617
thorax -2.77181 -1.90236 2.45468
lowerneck -7.19684 -8.20305 -1.51312
upperneck 8.46074 -11.5248 5.73878
head 4.20647 -5.37869 1.29685
lclavicle -3.44927e-14 -7.48991e-15 0
lhumerus -2.24957 -31.4963 48.8379
lradius 53.8275 0 0
lwrist 26.1564 0 0
lhand -17.7067 -1.34924 0
lfingers 7.12502 0 0
lthumb 8.56027 28.5324 0
rclavicle -3.44927e-14 -7.48991e-15 0
rhumerus 9.30569 -6.36708 -43.3457
rradius 115.239 0 0
rwrist -39.9291 0 0
rhand -33.3302 -31.864 0
rfingers 7.12502 0 0
rthumb -6.51829 -782.072 0
655
root 5.84211 19.0133 0.210068 14.5755 -13.4054 -12.8403
lfemur -27.2313 12.1822 -3.38281
ltibia 67.9996 0 0
lfoot -14.3853 11.0919 0
ltoes 22.6217 0 0
rfemur -39.907 -11.2856 16.7806
rtibia 55.5254 0 0
rfoot 14.3169 9.1919 0
rtoes 12.4913 0 0
lowerback 4.72123 -2.68299 -4.57615
upperback -0.401784 -3.83591 -0.362069
thorax -2.8246 -1.89312 2.39564
lowerneck -7.18781 -8.14972 -1.52336
upperneck 8.28946 -11.4416 5.72567
head 4.15032 -5.34368 1.30543
lclavicle -3.38296e-14 -7.34579e-15 0
lhumerus -1.79435 -31.2828 47.7938
lradius 53.7957 0 0
lwrist 26.2117 0 0
lhand -17.7963 -1.39642 0
lfingers 7.12502 0 0
lthumb 8.47366 28.4876 0
rclavicle -3.38296e-14 -7.34579e-15 0
rhumerus 8.78439 -6.56091 -42.5958
rradius 114.973 0 0
rwrist -39.2777 0 0
rhand -33.3854 -32.0845 0
rfingers 7.12502 0 0
rthumb -6.57179 -782.288 0
656
root 5.84665 19.0752 0.311294 14.5553 -15.2439 -13.293
lfemur -27.4801 11.7464 -2.9282
ltibia 68.6976 0 0
lfoot -13.9271 10.7086 0
ltoes 22.9099 0 0
rfemur -39.626 -11.0652 16.4265
rtibia 55.5503 0 0
rfoot 14.4886 8.59756 0
rtoes 12.9707 0 0
lowerback 4.75898 -2.66841 -4.53461
upperback -0.425393 -3.81721 -0.397457
thorax -2.87739 -1.88357 2.33631
lowerneck -7.17882 -8.09625 -1.53356
upperneck 8.11771 -11.358 5.71222
head 4.09401 -5.30857 1.31392
lclavicle -3.31655e-14 -7.20088e-15 0
lhumerus -1.34276 -31.0684 46.7533
lradius 53.7642 0 0
lwrist 26.2658 0 0
lhand -17.8846 -1.44338 0
lfingers 7.12502 0 0
lthumb 8.38832 28.4428 0
rclavicle -3.31655e-14 -7.20088e-15 0
rhumerus 8.25913 -6.75034 -41.8495
rradius 114.705 0 0
rwrist -38.6217 0 0
rhand -33.4377 -32.3042 0
rfingers 7.12502 0 0
rthumb -6.62257 -782.502 0
657
root 5.85102 19.1369 0.413197 14.5263 -17.0782 -13.7384
lfemur -27.7296 11.3084 -2.47425
ltibia 69.394 0 0
lfoot -13.469 10.3237 0
ltoes 23.1975 0 0
rfemur -39.3442 -10.8433 16.0718
rtibia 55.5746 0 0
rfoot 14.6588 8.00197 0
rtoes 13.4479 0 0
lowerback 4.79681 -2.65338 -4.49249
upperback -0.448932 -3.79788 -0.432766
thorax -2.93015 -1.87371 2.27671
lowerneck -7.16987 -8.04266 -1.54369
upperneck 7.94556 -11.2743 5.69843
head 4.03756 -5.27338 1.32231
lclavicle -3.25011e-14 -7.05529e-15 0
lhumerus -0.895097 -30.853 45.7172
lradius 53.733 0 0
lwrist 26.3188 0 0
lhand -17.9716 -1.49008 0
lfingers 7.12502 0 0
lthumb 8.30426 28.3981 0
rclavicle -3.25011e-14 -7.05529e-15 0
rhumerus 7.73023 -6.93526 -41.1074
rradius 114.434 0 0
rwrist -37.9617 0 0
rhand -33.4872 -32.5229 0
rfingers 7.12502 0 0
rthumb -6.67066 -782.715 0
